# MagicaVoxel @ ephtracy

# material
mtllib Veh-002b.mtl
usemtl palette

# normals
vn -1 0 0
vn 1 0 0
vn 0 0 1
vn 0 0 -1
vn 0 -1 0
vn 0 1 0

# texcoords
vt 0.00195313 0.5
vt 0.0332031 0.5
vt 0.0644531 0.5
vt 0.673828 0.5
vt 0.783203 0.5
vt 0.841797 0.5
vt 0.966797 0.5
vt 0.986328 0.5
vt 0.990234 0.5

# verts
v -9.5 6 6.5
v -9.5 6 5.5
v -9.5 7 6.5
v -9.5 7 5.5
v -7.5 1 13.5
v -7.5 1 9.5
v -7.5 1 6.5
v -7.5 1 -7.5
v -7.5 1 -10.5
v -7.5 1 -13.5
v -7.5 2 13.5
v -7.5 2 12.5
v -7.5 2 -12.5
v -7.5 2 -13.5
v -7.5 3 9.5
v -7.5 3 6.5
v -7.5 3 -7.5
v -7.5 3 -10.5
v -7.5 3 -12.5
v -7.5 3 -13.5
v -7.5 4 13.5
v -7.5 4 12.5
v -7.5 4 -12.5
v -7.5 4 -13.5
v -7.5 5 13.5
v -7.5 5 6.5
v -7.5 5 5.5
v -7.5 5 0.5
v -7.5 5 -0.5
v -7.5 5 -5.5
v -7.5 5 -6.5
v -7.5 5 -13.5
v -7.5 6 6.5
v -7.5 6 5.5
v -7.5 7 6.5
v -7.5 7 5.5
v -7.5 9 5.5
v -7.5 9 0.5
v -7.5 9 -0.5
v -7.5 9 -5.5
v -7.5 10 6.5
v -7.5 10 -6.5
v -5.5 1 9.5
v -5.5 1 6.5
v -5.5 1 -7.5
v -5.5 1 -10.5
v -5.5 2 9.5
v -5.5 2 6.5
v -5.5 2 -7.5
v -5.5 2 -10.5
v -5.5 3 9.5
v -5.5 3 6.5
v -5.5 3 -7.5
v -5.5 3 -10.5
v -4.5 0 -9.5
v -4.5 0 -12.5
v -4.5 1 -9.5
v -4.5 1 -12.5
v -3.5 0 -12.5
v -3.5 0 -13.5
v -3.5 1 -12.5
v -3.5 1 -13.5
v 1.5 0 -9.5
v 1.5 0 -12.5
v 1.5 1 -9.5
v 1.5 1 -12.5
v 1.5 2 3.5
v 1.5 2 0.5
v 1.5 3 3.5
v 1.5 3 1.5
v 1.5 7 1.5
v 1.5 7 0.5
v 2.5 0 -12.5
v 2.5 0 -13.5
v 2.5 1 -12.5
v 2.5 1 -13.5
v 2.5 3 5.5
v 2.5 3 4.5
v 2.5 5 5.5
v 2.5 6 5.5
v 2.5 6 4.5
v 6.5 2 5.5
v 6.5 2 3.5
v 6.5 2 0.5
v 6.5 2 -2.5
v 6.5 3 3.5
v 6.5 3 1.5
v 6.5 3 -2.5
v 6.5 3 -4.5
v 6.5 5 5.5
v 6.5 5 1.5
v 6.5 5 -0.5
v 6.5 5 -4.5
v 6.5 7 1.5
v 6.5 7 0.5
v 6.5 7 -4.5
v 6.5 7 -5.5
v 6.5 9 5.5
v 6.5 9 0.5
v 6.5 9 -0.5
v 6.5 9 -5.5
v -6.5 2 5.5
v -6.5 2 3.5
v -6.5 2 0.5
v -6.5 2 -2.5
v -6.5 3 3.5
v -6.5 3 1.5
v -6.5 3 -2.5
v -6.5 3 -4.5
v -6.5 5 5.5
v -6.5 5 1.5
v -6.5 5 -0.5
v -6.5 5 -4.5
v -6.5 7 1.5
v -6.5 7 0.5
v -6.5 7 -4.5
v -6.5 7 -5.5
v -6.5 9 5.5
v -6.5 9 0.5
v -6.5 9 -0.5
v -6.5 9 -5.5
v -2.5 0 -12.5
v -2.5 0 -13.5
v -2.5 1 -12.5
v -2.5 1 -13.5
v -1.5 0 -9.5
v -1.5 0 -12.5
v -1.5 1 -9.5
v -1.5 1 -12.5
v -1.5 2 3.5
v -1.5 2 0.5
v -1.5 3 3.5
v -1.5 3 1.5
v -1.5 7 1.5
v -1.5 7 0.5
v 3.5 0 -12.5
v 3.5 0 -13.5
v 3.5 1 -12.5
v 3.5 1 -13.5
v 4.5 0 -9.5
v 4.5 0 -12.5
v 4.5 1 -9.5
v 4.5 1 -12.5
v 5.5 1 9.5
v 5.5 1 6.5
v 5.5 1 -7.5
v 5.5 1 -10.5
v 5.5 2 9.5
v 5.5 2 6.5
v 5.5 2 -7.5
v 5.5 2 -10.5
v 5.5 3 9.5
v 5.5 3 6.5
v 5.5 3 5.5
v 5.5 3 4.5
v 5.5 3 -7.5
v 5.5 3 -10.5
v 5.5 5 5.5
v 5.5 6 5.5
v 5.5 6 4.5
v 7.5 1 13.5
v 7.5 1 9.5
v 7.5 1 6.5
v 7.5 1 -7.5
v 7.5 1 -10.5
v 7.5 1 -13.5
v 7.5 2 13.5
v 7.5 2 12.5
v 7.5 2 -12.5
v 7.5 2 -13.5
v 7.5 3 9.5
v 7.5 3 6.5
v 7.5 3 -7.5
v 7.5 3 -10.5
v 7.5 3 -12.5
v 7.5 3 -13.5
v 7.5 4 13.5
v 7.5 4 12.5
v 7.5 4 -12.5
v 7.5 4 -13.5
v 7.5 5 13.5
v 7.5 5 6.5
v 7.5 5 5.5
v 7.5 5 0.5
v 7.5 5 -0.5
v 7.5 5 -5.5
v 7.5 5 -6.5
v 7.5 5 -13.5
v 7.5 6 6.5
v 7.5 6 5.5
v 7.5 7 6.5
v 7.5 7 5.5
v 7.5 9 5.5
v 7.5 9 0.5
v 7.5 9 -0.5
v 7.5 9 -5.5
v 7.5 10 6.5
v 7.5 10 -6.5
v 9.5 6 6.5
v 9.5 6 5.5
v 9.5 7 6.5
v 9.5 7 5.5
v -7.5 1 13.5
v -7.5 2 13.5
v -7.5 4 13.5
v -7.5 5 13.5
v -6.5 2 13.5
v -6.5 4 13.5
v -4.5 2 13.5
v -4.5 4 13.5
v -3.5 2 13.5
v -3.5 4 13.5
v -1.5 1 13.5
v -1.5 2 13.5
v -1.5 3 13.5
v 1.5 1 13.5
v 1.5 2 13.5
v 1.5 3 13.5
v 3.5 2 13.5
v 3.5 4 13.5
v 4.5 2 13.5
v 4.5 4 13.5
v 6.5 2 13.5
v 6.5 4 13.5
v 7.5 1 13.5
v 7.5 2 13.5
v 7.5 4 13.5
v 7.5 5 13.5
v -9.5 6 6.5
v -9.5 7 6.5
v -7.5 1 6.5
v -7.5 3 6.5
v -7.5 5 6.5
v -7.5 6 6.5
v -7.5 7 6.5
v -7.5 10 6.5
v -6.5 1 6.5
v -6.5 2 6.5
v -6.5 5 6.5
v -6.5 9 6.5
v -5.5 1 6.5
v -5.5 2 6.5
v -5.5 3 6.5
v 5.5 1 6.5
v 5.5 2 6.5
v 5.5 3 6.5
v 6.5 1 6.5
v 6.5 2 6.5
v 6.5 5 6.5
v 6.5 9 6.5
v 7.5 1 6.5
v 7.5 3 6.5
v 7.5 5 6.5
v 7.5 6 6.5
v 7.5 7 6.5
v 7.5 10 6.5
v 9.5 6 6.5
v 9.5 7 6.5
v -6.5 2 3.5
v -6.5 3 3.5
v -1.5 2 3.5
v -1.5 3 3.5
v 1.5 2 3.5
v 1.5 3 3.5
v 6.5 2 3.5
v 6.5 3 3.5
v -6.5 3 1.5
v -6.5 5 1.5
v -6.5 7 1.5
v -1.5 3 1.5
v -1.5 7 1.5
v 1.5 3 1.5
v 1.5 7 1.5
v 6.5 3 1.5
v 6.5 5 1.5
v 6.5 7 1.5
v -6.5 2 -2.5
v -6.5 3 -2.5
v 6.5 2 -2.5
v 6.5 3 -2.5
v -6.5 3 -4.5
v -6.5 5 -4.5
v -6.5 7 -4.5
v 6.5 3 -4.5
v 6.5 5 -4.5
v 6.5 7 -4.5
v -6.5 7 -5.5
v -6.5 9 -5.5
v 6.5 7 -5.5
v 6.5 9 -5.5
v -4.5 0 -9.5
v -4.5 1 -9.5
v -1.5 0 -9.5
v -1.5 1 -9.5
v 1.5 0 -9.5
v 1.5 1 -9.5
v 4.5 0 -9.5
v 4.5 1 -9.5
v -7.5 1 -10.5
v -7.5 3 -10.5
v -6.5 1 -10.5
v -6.5 2 -10.5
v -5.5 1 -10.5
v -5.5 2 -10.5
v -5.5 3 -10.5
v 5.5 1 -10.5
v 5.5 2 -10.5
v 5.5 3 -10.5
v 6.5 1 -10.5
v 6.5 2 -10.5
v 7.5 1 -10.5
v 7.5 3 -10.5
v -7.5 1 9.5
v -7.5 3 9.5
v -6.5 1 9.5
v -6.5 2 9.5
v -5.5 1 9.5
v -5.5 2 9.5
v -5.5 3 9.5
v 5.5 1 9.5
v 5.5 2 9.5
v 5.5 3 9.5
v 6.5 1 9.5
v 6.5 2 9.5
v 7.5 1 9.5
v 7.5 3 9.5
v -9.5 6 5.5
v -9.5 7 5.5
v -7.5 6 5.5
v -7.5 7 5.5
v -6.5 2 5.5
v -6.5 5 5.5
v -6.5 9 5.5
v 2.5 3 5.5
v 2.5 5 5.5
v 2.5 6 5.5
v 5.5 3 5.5
v 5.5 5 5.5
v 5.5 6 5.5
v 6.5 2 5.5
v 6.5 5 5.5
v 6.5 9 5.5
v 7.5 6 5.5
v 7.5 7 5.5
v 9.5 6 5.5
v 9.5 7 5.5
v 2.5 3 4.5
v 2.5 6 4.5
v 5.5 3 4.5
v 5.5 6 4.5
v -6.5 2 0.5
v -6.5 7 0.5
v -1.5 2 0.5
v -1.5 7 0.5
v 1.5 2 0.5
v 1.5 7 0.5
v 6.5 2 0.5
v 6.5 7 0.5
v -7.5 5 -6.5
v -7.5 10 -6.5
v -6.5 5 -6.5
v -6.5 9 -6.5
v 6.5 5 -6.5
v 6.5 9 -6.5
v 7.5 5 -6.5
v 7.5 10 -6.5
v -7.5 1 -7.5
v -7.5 3 -7.5
v -6.5 1 -7.5
v -6.5 2 -7.5
v -5.5 1 -7.5
v -5.5 2 -7.5
v -5.5 3 -7.5
v 5.5 1 -7.5
v 5.5 2 -7.5
v 5.5 3 -7.5
v 6.5 1 -7.5
v 6.5 2 -7.5
v 7.5 1 -7.5
v 7.5 3 -7.5
v -4.5 0 -12.5
v -4.5 1 -12.5
v -3.5 0 -12.5
v -3.5 1 -12.5
v -2.5 0 -12.5
v -2.5 1 -12.5
v -1.5 0 -12.5
v -1.5 1 -12.5
v 1.5 0 -12.5
v 1.5 1 -12.5
v 2.5 0 -12.5
v 2.5 1 -12.5
v 3.5 0 -12.5
v 3.5 1 -12.5
v 4.5 0 -12.5
v 4.5 1 -12.5
v -7.5 1 -13.5
v -7.5 2 -13.5
v -7.5 3 -13.5
v -7.5 4 -13.5
v -7.5 5 -13.5
v -5.5 2 -13.5
v -5.5 3 -13.5
v -4.5 2 -13.5
v -4.5 3 -13.5
v -4.5 4 -13.5
v -3.5 0 -13.5
v -3.5 1 -13.5
v -2.5 0 -13.5
v -2.5 1 -13.5
v -2.5 2 -13.5
v -2.5 4 -13.5
v -1.5 2 -13.5
v -1.5 4 -13.5
v 1.5 2 -13.5
v 1.5 4 -13.5
v 2.5 0 -13.5
v 2.5 1 -13.5
v 2.5 2 -13.5
v 2.5 4 -13.5
v 3.5 0 -13.5
v 3.5 1 -13.5
v 4.5 2 -13.5
v 4.5 3 -13.5
v 4.5 4 -13.5
v 5.5 2 -13.5
v 5.5 3 -13.5
v 7.5 1 -13.5
v 7.5 2 -13.5
v 7.5 3 -13.5
v 7.5 4 -13.5
v 7.5 5 -13.5
v -4.5 0 -9.5
v -1.5 0 -9.5
v 1.5 0 -9.5
v 4.5 0 -9.5
v -4.5 0 -12.5
v -3.5 0 -12.5
v -2.5 0 -12.5
v -1.5 0 -12.5
v 1.5 0 -12.5
v 2.5 0 -12.5
v 3.5 0 -12.5
v 4.5 0 -12.5
v -3.5 0 -13.5
v -2.5 0 -13.5
v 2.5 0 -13.5
v 3.5 0 -13.5
v -7.5 1 13.5
v -1.5 1 13.5
v 1.5 1 13.5
v 7.5 1 13.5
v -6.5 1 12.5
v -1.5 1 12.5
v 1.5 1 12.5
v 6.5 1 12.5
v -7.5 1 9.5
v -6.5 1 9.5
v -5.5 1 9.5
v 5.5 1 9.5
v 6.5 1 9.5
v 7.5 1 9.5
v -7.5 1 6.5
v -6.5 1 6.5
v -5.5 1 6.5
v 5.5 1 6.5
v 6.5 1 6.5
v 7.5 1 6.5
v -7.5 1 -7.5
v -6.5 1 -7.5
v -5.5 1 -7.5
v 5.5 1 -7.5
v 6.5 1 -7.5
v 7.5 1 -7.5
v -4.5 1 -9.5
v -1.5 1 -9.5
v 1.5 1 -9.5
v 4.5 1 -9.5
v -7.5 1 -10.5
v -6.5 1 -10.5
v -5.5 1 -10.5
v 5.5 1 -10.5
v 6.5 1 -10.5
v 7.5 1 -10.5
v -6.5 1 -12.5
v -4.5 1 -12.5
v -3.5 1 -12.5
v -2.5 1 -12.5
v -1.5 1 -12.5
v 1.5 1 -12.5
v 2.5 1 -12.5
v 3.5 1 -12.5
v 4.5 1 -12.5
v 6.5 1 -12.5
v -7.5 1 -13.5
v -3.5 1 -13.5
v -2.5 1 -13.5
v 2.5 1 -13.5
v 3.5 1 -13.5
v 7.5 1 -13.5
v -7.5 3 9.5
v -5.5 3 9.5
v 5.5 3 9.5
v 7.5 3 9.5
v -7.5 3 6.5
v -5.5 3 6.5
v 5.5 3 6.5
v 7.5 3 6.5
v 2.5 3 5.5
v 5.5 3 5.5
v 2.5 3 4.5
v 5.5 3 4.5
v -7.5 3 -7.5
v -5.5 3 -7.5
v 5.5 3 -7.5
v 7.5 3 -7.5
v -7.5 3 -10.5
v -5.5 3 -10.5
v 5.5 3 -10.5
v 7.5 3 -10.5
v -9.5 6 6.5
v -7.5 6 6.5
v 7.5 6 6.5
v 9.5 6 6.5
v -9.5 6 5.5
v -7.5 6 5.5
v 7.5 6 5.5
v 9.5 6 5.5
v -6.5 9 5.5
v 6.5 9 5.5
v -6.5 9 0.5
v 6.5 9 0.5
v -6.5 9 -0.5
v 6.5 9 -0.5
v -6.5 9 -5.5
v 6.5 9 -5.5
v -6.5 2 5.5
v 6.5 2 5.5
v -6.5 2 3.5
v -1.5 2 3.5
v 1.5 2 3.5
v 6.5 2 3.5
v -6.5 2 0.5
v -1.5 2 0.5
v 1.5 2 0.5
v 6.5 2 0.5
v -6.5 2 -2.5
v 6.5 2 -2.5
v -6.5 3 3.5
v -1.5 3 3.5
v 1.5 3 3.5
v 6.5 3 3.5
v -6.5 3 1.5
v -1.5 3 1.5
v 1.5 3 1.5
v 6.5 3 1.5
v -6.5 3 -2.5
v 6.5 3 -2.5
v -6.5 3 -4.5
v 6.5 3 -4.5
v -7.5 5 13.5
v 7.5 5 13.5
v -7.5 5 6.5
v -6.5 5 6.5
v 6.5 5 6.5
v 7.5 5 6.5
v -7.5 5 -6.5
v -6.5 5 -6.5
v 6.5 5 -6.5
v 7.5 5 -6.5
v -7.5 5 -13.5
v 7.5 5 -13.5
v 2.5 6 5.5
v 5.5 6 5.5
v 2.5 6 4.5
v 5.5 6 4.5
v -9.5 7 6.5
v -7.5 7 6.5
v 7.5 7 6.5
v 9.5 7 6.5
v -9.5 7 5.5
v -7.5 7 5.5
v 7.5 7 5.5
v 9.5 7 5.5
v -6.5 7 1.5
v -1.5 7 1.5
v 1.5 7 1.5
v 6.5 7 1.5
v -6.5 7 0.5
v -1.5 7 0.5
v 1.5 7 0.5
v 6.5 7 0.5
v -6.5 7 -4.5
v 6.5 7 -4.5
v -6.5 7 -5.5
v 6.5 7 -5.5
v -7.5 10 6.5
v 7.5 10 6.5
v -7.5 10 -6.5
v 7.5 10 -6.5

# faces
f 3/5/1 2/5/1 1/5/1
f 4/5/1 2/5/1 3/5/1
f 11/5/1 6/5/1 5/5/1
f 12/5/1 6/5/1 11/5/1
f 13/5/1 10/5/1 9/5/1
f 14/5/1 10/5/1 13/5/1
f 15/5/1 6/5/1 12/5/1
f 16/5/1 8/5/1 7/5/1
f 17/5/1 8/5/1 16/5/1
f 18/5/1 13/5/1 9/5/1
f 19/3/1 14/3/1 13/3/1
f 19/5/1 13/5/1 18/5/1
f 20/3/1 14/3/1 19/3/1
f 21/3/1 12/3/1 11/3/1
f 22/5/1 15/5/1 12/5/1
f 22/3/1 12/3/1 21/3/1
f 22/5/1 17/5/1 16/5/1
f 22/5/1 18/5/1 17/5/1
f 22/5/1 19/5/1 18/5/1
f 22/5/1 16/5/1 15/5/1
f 23/6/1 20/6/1 19/6/1
f 23/5/1 19/5/1 22/5/1
f 24/6/1 20/6/1 23/6/1
f 25/5/1 22/5/1 21/5/1
f 25/5/1 23/5/1 22/5/1
f 25/5/1 24/5/1 23/5/1
f 26/5/1 24/5/1 25/5/1
f 27/5/1 24/5/1 26/5/1
f 28/5/1 24/5/1 27/5/1
f 29/5/1 24/5/1 28/5/1
f 30/5/1 24/5/1 29/5/1
f 31/5/1 24/5/1 30/5/1
f 32/5/1 24/5/1 31/5/1
f 33/5/1 27/5/1 26/5/1
f 34/4/1 28/4/1 27/4/1
f 34/5/1 27/5/1 33/5/1
f 36/4/1 28/4/1 34/4/1
f 37/4/1 28/4/1 36/4/1
f 37/5/1 36/5/1 35/5/1
f 38/5/1 29/5/1 28/5/1
f 38/4/1 28/4/1 37/4/1
f 39/4/1 30/4/1 29/4/1
f 39/5/1 29/5/1 38/5/1
f 40/5/1 31/5/1 30/5/1
f 40/4/1 30/4/1 39/4/1
f 41/5/1 39/5/1 38/5/1
f 41/5/1 37/5/1 35/5/1
f 41/5/1 40/5/1 39/5/1
f 41/5/1 38/5/1 37/5/1
f 42/5/1 31/5/1 40/5/1
f 42/5/1 40/5/1 41/5/1
f 47/8/1 44/8/1 43/8/1
f 48/8/1 44/8/1 47/8/1
f 49/8/1 46/8/1 45/8/1
f 50/8/1 46/8/1 49/8/1
f 51/5/1 48/5/1 47/5/1
f 52/5/1 48/5/1 51/5/1
f 53/5/1 50/5/1 49/5/1
f 54/5/1 50/5/1 53/5/1
f 57/7/1 56/7/1 55/7/1
f 58/7/1 56/7/1 57/7/1
f 61/7/1 60/7/1 59/7/1
f 62/7/1 60/7/1 61/7/1
f 65/7/1 64/7/1 63/7/1
f 66/7/1 64/7/1 65/7/1
f 69/2/1 68/2/1 67/2/1
f 70/2/1 68/2/1 69/2/1
f 71/2/1 68/2/1 70/2/1
f 72/2/1 68/2/1 71/2/1
f 75/7/1 74/7/1 73/7/1
f 76/7/1 74/7/1 75/7/1
f 79/2/1 78/2/1 77/2/1
f 80/2/1 78/2/1 79/2/1
f 81/2/1 78/2/1 80/2/1
f 86/5/1 83/5/1 82/5/1
f 88/5/1 85/5/1 84/5/1
f 90/5/1 87/5/1 86/5/1
f 90/5/1 86/5/1 82/5/1
f 91/5/1 87/5/1 90/5/1
f 92/5/1 89/5/1 88/5/1
f 92/5/1 88/5/1 84/5/1
f 93/5/1 89/5/1 92/5/1
f 94/4/1 91/4/1 90/4/1
f 95/5/1 92/5/1 84/5/1
f 96/4/1 93/4/1 92/4/1
f 98/4/1 94/4/1 90/4/1
f 98/4/1 95/4/1 94/4/1
f 99/5/1 92/5/1 95/5/1
f 99/4/1 95/4/1 98/4/1
f 100/4/1 96/4/1 92/4/1
f 100/5/1 92/5/1 99/5/1
f 100/4/1 97/4/1 96/4/1
f 101/4/1 97/4/1 100/4/1
f 102/5/2 103/5/2 106/5/2
f 104/5/2 105/5/2 108/5/2
f 106/5/2 107/5/2 110/5/2
f 102/5/2 106/5/2 110/5/2
f 110/5/2 107/5/2 111/5/2
f 108/5/2 109/5/2 112/5/2
f 104/5/2 108/5/2 112/5/2
f 112/5/2 109/5/2 113/5/2
f 110/4/2 111/4/2 114/4/2
f 104/5/2 112/5/2 115/5/2
f 112/4/2 113/4/2 116/4/2
f 110/4/2 114/4/2 118/4/2
f 114/4/2 115/4/2 118/4/2
f 115/5/2 112/5/2 119/5/2
f 118/4/2 115/4/2 119/4/2
f 112/4/2 116/4/2 120/4/2
f 119/5/2 112/5/2 120/5/2
f 116/4/2 117/4/2 120/4/2
f 120/4/2 117/4/2 121/4/2
f 122/7/2 123/7/2 124/7/2
f 124/7/2 123/7/2 125/7/2
f 126/7/2 127/7/2 128/7/2
f 128/7/2 127/7/2 129/7/2
f 130/2/2 131/2/2 132/2/2
f 132/2/2 131/2/2 133/2/2
f 133/2/2 131/2/2 134/2/2
f 134/2/2 131/2/2 135/2/2
f 136/7/2 137/7/2 138/7/2
f 138/7/2 137/7/2 139/7/2
f 140/7/2 141/7/2 142/7/2
f 142/7/2 141/7/2 143/7/2
f 144/8/2 145/8/2 148/8/2
f 148/8/2 145/8/2 149/8/2
f 146/8/2 147/8/2 150/8/2
f 150/8/2 147/8/2 151/8/2
f 148/5/2 149/5/2 152/5/2
f 152/5/2 149/5/2 153/5/2
f 150/5/2 151/5/2 156/5/2
f 156/5/2 151/5/2 157/5/2
f 154/2/2 155/2/2 158/2/2
f 158/2/2 155/2/2 159/2/2
f 159/2/2 155/2/2 160/2/2
f 161/5/2 162/5/2 167/5/2
f 167/5/2 162/5/2 168/5/2
f 165/5/2 166/5/2 169/5/2
f 169/5/2 166/5/2 170/5/2
f 168/5/2 162/5/2 171/5/2
f 163/5/2 164/5/2 172/5/2
f 172/5/2 164/5/2 173/5/2
f 165/5/2 169/5/2 174/5/2
f 169/3/2 170/3/2 175/3/2
f 174/5/2 169/5/2 175/5/2
f 175/3/2 170/3/2 176/3/2
f 167/3/2 168/3/2 177/3/2
f 168/5/2 171/5/2 178/5/2
f 177/3/2 168/3/2 178/3/2
f 172/5/2 173/5/2 178/5/2
f 173/5/2 174/5/2 178/5/2
f 174/5/2 175/5/2 178/5/2
f 171/5/2 172/5/2 178/5/2
f 175/6/2 176/6/2 179/6/2
f 178/5/2 175/5/2 179/5/2
f 179/6/2 176/6/2 180/6/2
f 177/5/2 178/5/2 181/5/2
f 178/5/2 179/5/2 181/5/2
f 179/5/2 180/5/2 181/5/2
f 181/5/2 180/5/2 182/5/2
f 182/5/2 180/5/2 183/5/2
f 183/5/2 180/5/2 184/5/2
f 184/5/2 180/5/2 185/5/2
f 185/5/2 180/5/2 186/5/2
f 186/5/2 180/5/2 187/5/2
f 187/5/2 180/5/2 188/5/2
f 182/5/2 183/5/2 189/5/2
f 183/4/2 184/4/2 190/4/2
f 189/5/2 183/5/2 190/5/2
f 190/4/2 184/4/2 192/4/2
f 192/4/2 184/4/2 193/4/2
f 191/5/2 192/5/2 193/5/2
f 184/5/2 185/5/2 194/5/2
f 193/4/2 184/4/2 194/4/2
f 185/4/2 186/4/2 195/4/2
f 194/5/2 185/5/2 195/5/2
f 186/5/2 187/5/2 196/5/2
f 195/4/2 186/4/2 196/4/2
f 194/5/2 195/5/2 197/5/2
f 191/5/2 193/5/2 197/5/2
f 195/5/2 196/5/2 197/5/2
f 193/5/2 194/5/2 197/5/2
f 196/5/2 187/5/2 198/5/2
f 197/5/2 196/5/2 198/5/2
f 199/5/2 200/5/2 201/5/2
f 201/5/2 200/5/2 202/5/2
f 207/5/3 204/5/3 203/5/3
f 207/3/3 205/3/3 204/3/3
f 208/5/3 206/5/3 205/5/3
f 208/3/3 205/3/3 207/3/3
f 209/5/3 207/5/3 203/5/3
f 209/1/3 208/1/3 207/1/3
f 210/5/3 206/5/3 208/5/3
f 210/1/3 208/1/3 209/1/3
f 211/5/3 209/5/3 203/5/3
f 211/5/3 210/5/3 209/5/3
f 212/5/3 206/5/3 210/5/3
f 212/5/3 210/5/3 211/5/3
f 213/5/3 211/5/3 203/5/3
f 214/9/3 212/9/3 211/9/3
f 214/5/3 211/5/3 213/5/3
f 215/9/3 212/9/3 214/9/3
f 216/7/3 214/7/3 213/7/3
f 216/7/3 215/7/3 214/7/3
f 217/7/3 215/7/3 216/7/3
f 218/9/3 212/9/3 215/9/3
f 218/7/3 215/7/3 217/7/3
f 219/5/3 217/5/3 216/5/3
f 219/9/3 218/9/3 217/9/3
f 220/5/3 206/5/3 212/5/3
f 220/9/3 218/9/3 219/9/3
f 220/9/3 212/9/3 218/9/3
f 221/5/3 219/5/3 216/5/3
f 221/5/3 220/5/3 219/5/3
f 222/5/3 206/5/3 220/5/3
f 222/5/3 220/5/3 221/5/3
f 223/5/3 221/5/3 216/5/3
f 223/1/3 222/1/3 221/1/3
f 224/5/3 206/5/3 222/5/3
f 224/1/3 222/1/3 223/1/3
f 225/5/3 223/5/3 216/5/3
f 226/3/3 224/3/3 223/3/3
f 226/5/3 223/5/3 225/5/3
f 227/5/3 206/5/3 224/5/3
f 227/3/3 224/3/3 226/3/3
f 228/5/3 206/5/3 227/5/3
f 234/5/3 230/5/3 229/5/3
f 235/5/3 230/5/3 234/5/3
f 237/5/3 232/5/3 231/5/3
f 238/5/3 232/5/3 237/5/3
f 239/5/3 236/5/3 235/5/3
f 239/5/3 234/5/3 233/5/3
f 239/5/3 235/5/3 234/5/3
f 240/5/3 236/5/3 239/5/3
f 241/8/3 238/8/3 237/8/3
f 242/5/3 232/5/3 238/5/3
f 242/8/3 238/8/3 241/8/3
f 243/5/3 232/5/3 242/5/3
f 247/8/3 245/8/3 244/8/3
f 248/5/3 246/5/3 245/5/3
f 248/8/3 245/8/3 247/8/3
f 249/4/3 240/4/3 239/4/3
f 250/5/3 236/5/3 240/5/3
f 250/4/3 240/4/3 249/4/3
f 251/5/3 248/5/3 247/5/3
f 252/5/3 246/5/3 248/5/3
f 252/5/3 248/5/3 251/5/3
f 253/5/3 250/5/3 249/5/3
f 254/5/3 250/5/3 253/5/3
f 255/5/3 250/5/3 254/5/3
f 256/5/3 236/5/3 250/5/3
f 256/5/3 250/5/3 255/5/3
f 257/5/3 255/5/3 254/5/3
f 258/5/3 255/5/3 257/5/3
f 261/2/3 260/2/3 259/2/3
f 262/2/3 260/2/3 261/2/3
f 265/2/3 264/2/3 263/2/3
f 266/2/3 264/2/3 265/2/3
f 270/2/3 268/2/3 267/2/3
f 270/2/3 269/2/3 268/2/3
f 271/2/3 269/2/3 270/2/3
f 274/2/3 273/2/3 272/2/3
f 275/2/3 273/2/3 274/2/3
f 276/2/3 273/2/3 275/2/3
f 279/2/3 278/2/3 277/2/3
f 280/2/3 278/2/3 279/2/3
f 284/2/3 282/2/3 281/2/3
f 284/2/3 283/2/3 282/2/3
f 285/2/3 283/2/3 284/2/3
f 286/2/3 283/2/3 285/2/3
f 289/4/3 288/4/3 287/4/3
f 290/4/3 288/4/3 289/4/3
f 293/7/3 292/7/3 291/7/3
f 294/7/3 292/7/3 293/7/3
f 297/7/3 296/7/3 295/7/3
f 298/7/3 296/7/3 297/7/3
f 301/5/3 300/5/3 299/5/3
f 302/5/3 300/5/3 301/5/3
f 303/8/3 302/8/3 301/8/3
f 304/5/3 300/5/3 302/5/3
f 304/8/3 302/8/3 303/8/3
f 305/5/3 300/5/3 304/5/3
f 309/8/3 307/8/3 306/8/3
f 310/5/3 308/5/3 307/5/3
f 310/8/3 307/8/3 309/8/3
f 311/5/3 310/5/3 309/5/3
f 312/5/3 308/5/3 310/5/3
f 312/5/3 310/5/3 311/5/3
f 313/5/4 314/5/4 315/5/4
f 315/5/4 314/5/4 316/5/4
f 315/8/4 316/8/4 317/8/4
f 316/5/4 314/5/4 318/5/4
f 317/8/4 316/8/4 318/8/4
f 318/5/4 314/5/4 319/5/4
f 320/8/4 321/8/4 323/8/4
f 321/5/4 322/5/4 324/5/4
f 323/8/4 321/8/4 324/8/4
f 323/5/4 324/5/4 325/5/4
f 324/5/4 322/5/4 326/5/4
f 325/5/4 324/5/4 326/5/4
f 327/5/4 328/5/4 329/5/4
f 329/5/4 328/5/4 330/5/4
f 331/5/4 332/5/4 334/5/4
f 332/4/4 333/4/4 335/4/4
f 334/5/4 332/5/4 335/5/4
f 335/4/4 333/4/4 336/4/4
f 331/5/4 334/5/4 337/5/4
f 336/4/4 333/4/4 339/4/4
f 337/5/4 338/5/4 340/5/4
f 331/5/4 337/5/4 340/5/4
f 338/4/4 339/4/4 341/4/4
f 340/5/4 338/5/4 341/5/4
f 339/4/4 333/4/4 342/4/4
f 341/4/4 339/4/4 342/4/4
f 343/5/4 344/5/4 345/5/4
f 345/5/4 344/5/4 346/5/4
f 347/2/4 348/2/4 349/2/4
f 349/2/4 348/2/4 350/2/4
f 351/2/4 352/2/4 353/2/4
f 353/2/4 352/2/4 354/2/4
f 355/2/4 356/2/4 357/2/4
f 357/2/4 356/2/4 358/2/4
f 359/5/4 360/5/4 361/5/4
f 361/5/4 360/5/4 362/5/4
f 361/4/4 362/4/4 363/4/4
f 362/5/4 360/5/4 364/5/4
f 363/4/4 362/4/4 364/4/4
f 363/5/4 364/5/4 365/5/4
f 364/5/4 360/5/4 366/5/4
f 365/5/4 364/5/4 366/5/4
f 367/5/4 368/5/4 369/5/4
f 369/5/4 368/5/4 370/5/4
f 369/8/4 370/8/4 371/8/4
f 370/5/4 368/5/4 372/5/4
f 371/8/4 370/8/4 372/8/4
f 372/5/4 368/5/4 373/5/4
f 374/8/4 375/8/4 377/8/4
f 375/5/4 376/5/4 378/5/4
f 377/8/4 375/8/4 378/8/4
f 377/5/4 378/5/4 379/5/4
f 378/5/4 376/5/4 380/5/4
f 379/5/4 378/5/4 380/5/4
f 381/7/4 382/7/4 383/7/4
f 383/7/4 382/7/4 384/7/4
f 385/7/4 386/7/4 387/7/4
f 387/7/4 386/7/4 388/7/4
f 389/7/4 390/7/4 391/7/4
f 391/7/4 390/7/4 392/7/4
f 393/7/4 394/7/4 395/7/4
f 395/7/4 394/7/4 396/7/4
f 397/5/4 398/5/4 402/5/4
f 398/3/4 399/3/4 402/3/4
f 399/6/4 400/6/4 403/6/4
f 402/3/4 399/3/4 403/3/4
f 397/5/4 402/5/4 404/5/4
f 402/7/4 403/7/4 404/7/4
f 403/6/4 400/6/4 405/6/4
f 404/7/4 403/7/4 405/7/4
f 400/5/4 401/5/4 406/5/4
f 405/6/4 400/6/4 406/6/4
f 404/5/4 405/5/4 408/5/4
f 397/5/4 404/5/4 408/5/4
f 405/5/4 406/5/4 408/5/4
f 407/7/4 408/7/4 409/7/4
f 408/5/4 406/5/4 410/5/4
f 409/7/4 408/7/4 410/7/4
f 410/5/4 406/5/4 411/5/4
f 406/5/4 401/5/4 412/5/4
f 411/5/4 406/5/4 412/5/4
f 410/5/4 411/5/4 413/5/4
f 411/1/4 412/1/4 413/1/4
f 412/5/4 401/5/4 414/5/4
f 413/1/4 412/1/4 414/1/4
f 410/5/4 413/5/4 415/5/4
f 413/7/4 414/7/4 415/7/4
f 414/5/4 401/5/4 416/5/4
f 415/7/4 414/7/4 416/7/4
f 410/5/4 415/5/4 418/5/4
f 415/1/4 416/1/4 419/1/4
f 418/5/4 415/5/4 419/5/4
f 416/5/4 401/5/4 420/5/4
f 419/1/4 416/1/4 420/1/4
f 417/7/4 418/7/4 421/7/4
f 418/5/4 419/5/4 422/5/4
f 421/7/4 418/7/4 422/7/4
f 419/5/4 420/5/4 422/5/4
f 422/5/4 420/5/4 423/5/4
f 423/5/4 420/5/4 424/5/4
f 420/5/4 401/5/4 425/5/4
f 424/5/4 420/5/4 425/5/4
f 423/7/4 424/7/4 426/7/4
f 422/5/4 423/5/4 426/5/4
f 424/6/4 425/6/4 427/6/4
f 426/7/4 424/7/4 427/7/4
f 422/5/4 426/5/4 428/5/4
f 426/3/4 427/3/4 429/3/4
f 428/5/4 426/5/4 429/5/4
f 427/6/4 425/6/4 430/6/4
f 429/3/4 427/3/4 430/3/4
f 425/5/4 401/5/4 431/5/4
f 430/6/4 425/6/4 431/6/4
f 431/5/4 401/5/4 432/5/4
f 437/7/5 434/7/5 433/7/5
f 438/7/5 434/7/5 437/7/5
f 439/7/5 434/7/5 438/7/5
f 440/7/5 434/7/5 439/7/5
f 441/7/5 436/7/5 435/7/5
f 442/7/5 436/7/5 441/7/5
f 443/7/5 436/7/5 442/7/5
f 444/7/5 436/7/5 443/7/5
f 445/7/5 439/7/5 438/7/5
f 446/7/5 439/7/5 445/7/5
f 447/7/5 443/7/5 442/7/5
f 448/7/5 443/7/5 447/7/5
f 453/5/5 450/5/5 449/5/5
f 454/7/5 451/7/5 450/7/5
f 454/5/5 450/5/5 453/5/5
f 455/5/5 452/5/5 451/5/5
f 455/7/5 451/7/5 454/7/5
f 456/5/5 452/5/5 455/5/5
f 457/5/5 453/5/5 449/5/5
f 458/8/5 454/8/5 453/8/5
f 458/5/5 453/5/5 457/5/5
f 458/8/5 455/8/5 454/8/5
f 458/8/5 456/8/5 455/8/5
f 459/8/5 456/8/5 458/8/5
f 460/8/5 456/8/5 459/8/5
f 461/5/5 452/5/5 456/5/5
f 461/8/5 456/8/5 460/8/5
f 462/5/5 452/5/5 461/5/5
f 465/8/5 460/8/5 459/8/5
f 466/8/5 460/8/5 465/8/5
f 469/5/5 464/5/5 463/5/5
f 470/8/5 465/8/5 464/8/5
f 470/5/5 464/5/5 469/5/5
f 470/8/5 466/8/5 465/8/5
f 470/8/5 467/8/5 466/8/5
f 471/8/5 467/8/5 470/8/5
f 472/8/5 467/8/5 471/8/5
f 473/5/5 468/5/5 467/5/5
f 473/8/5 467/8/5 472/8/5
f 474/5/5 468/5/5 473/5/5
f 475/8/5 472/8/5 471/8/5
f 476/8/5 472/8/5 475/8/5
f 477/8/5 472/8/5 476/8/5
f 478/8/5 472/8/5 477/8/5
f 481/8/5 475/8/5 471/8/5
f 482/8/5 472/8/5 478/8/5
f 485/5/5 480/5/5 479/5/5
f 485/8/5 481/8/5 480/8/5
f 486/8/5 475/8/5 481/8/5
f 486/8/5 481/8/5 485/8/5
f 489/8/5 477/8/5 476/8/5
f 490/8/5 477/8/5 489/8/5
f 493/8/5 483/8/5 482/8/5
f 493/8/5 482/8/5 478/8/5
f 494/5/5 484/5/5 483/5/5
f 494/8/5 483/8/5 493/8/5
f 495/5/5 487/5/5 486/5/5
f 495/5/5 485/5/5 479/5/5
f 495/5/5 486/5/5 485/5/5
f 496/5/5 487/5/5 495/5/5
f 497/5/5 491/5/5 490/5/5
f 497/5/5 490/5/5 489/5/5
f 497/5/5 489/5/5 488/5/5
f 498/5/5 491/5/5 497/5/5
f 499/5/5 493/5/5 492/5/5
f 499/5/5 494/5/5 493/5/5
f 500/5/5 484/5/5 494/5/5
f 500/5/5 494/5/5 499/5/5
f 505/5/5 502/5/5 501/5/5
f 506/5/5 502/5/5 505/5/5
f 507/5/5 504/5/5 503/5/5
f 508/5/5 504/5/5 507/5/5
f 511/2/5 510/2/5 509/2/5
f 512/2/5 510/2/5 511/2/5
f 517/5/5 514/5/5 513/5/5
f 518/5/5 514/5/5 517/5/5
f 519/5/5 516/5/5 515/5/5
f 520/5/5 516/5/5 519/5/5
f 525/5/5 522/5/5 521/5/5
f 526/5/5 522/5/5 525/5/5
f 527/5/5 524/5/5 523/5/5
f 528/5/5 524/5/5 527/5/5
f 531/5/5 530/5/5 529/5/5
f 532/5/5 530/5/5 531/5/5
f 533/5/5 532/5/5 531/5/5
f 534/5/5 532/5/5 533/5/5
f 535/5/5 534/5/5 533/5/5
f 536/5/5 534/5/5 535/5/5
f 537/8/6 538/8/6 539/8/6
f 539/8/6 538/8/6 540/8/6
f 540/8/6 538/8/6 541/8/6
f 541/8/6 538/8/6 542/8/6
f 540/8/6 541/8/6 544/8/6
f 544/8/6 541/8/6 545/8/6
f 543/8/6 544/8/6 547/8/6
f 545/8/6 546/8/6 547/8/6
f 544/8/6 545/8/6 547/8/6
f 547/8/6 546/8/6 548/8/6
f 549/2/6 550/2/6 553/2/6
f 553/2/6 550/2/6 554/2/6
f 551/2/6 552/2/6 555/2/6
f 555/2/6 552/2/6 556/2/6
f 557/2/6 558/2/6 559/2/6
f 559/2/6 558/2/6 560/2/6
f 561/5/6 562/5/6 563/5/6
f 563/5/6 562/5/6 564/5/6
f 564/5/6 562/5/6 565/5/6
f 565/5/6 562/5/6 566/5/6
f 567/5/6 568/5/6 571/5/6
f 569/5/6 570/5/6 571/5/6
f 568/5/6 569/5/6 571/5/6
f 571/5/6 570/5/6 572/5/6
f 573/2/6 574/2/6 575/2/6
f 575/2/6 574/2/6 576/2/6
f 577/5/6 578/5/6 581/5/6
f 581/5/6 578/5/6 582/5/6
f 579/5/6 580/5/6 583/5/6
f 583/5/6 580/5/6 584/5/6
f 585/2/6 586/2/6 589/2/6
f 589/2/6 586/2/6 590/2/6
f 587/2/6 588/2/6 591/2/6
f 591/2/6 588/2/6 592/2/6
f 593/2/6 594/2/6 595/2/6
f 595/2/6 594/2/6 596/2/6
f 597/5/6 598/5/6 599/5/6
f 599/5/6 598/5/6 600/5/6
