# OBJ written from C:\Users\Dian\Desktop\TV Samsung\Model Files\OBJ\Low Poly version TV Samsung\Low Poly version TV Samsung.obj

o Low Poly version TV Samsung
v 0 -0.240063 -0.0215002
v 0 -0.20602 -0.0545002
v -0.041 -0.240063 -0.0215002
v -0.041 -0.20602 -0.0545002
v 0.041 -0.20602 -0.0545002
v 0.041 -0.240063 -0.0215002
v 0 -0.20602 -0.0595002
v 0 -0.236063 -0.0673002
v -0.041 -0.236063 -0.0673002
v -0.041 -0.20602 -0.0595002
v 0.041 -0.20602 -0.0595002
v 0.041 -0.236063 -0.0673002
v -0.35 -0.154856 0.0195002
v -0.35 0.24475 0.0195002
v 0.35 0.24475 0.0195002
v 0.35 -0.154856 0.0195002
v 0.198453 0.24475 0.0195002
v 0.198453 -0.154856 0.0195002
v -0.198453 0.24475 0.0195002
v -0.198453 -0.154856 0.0195002
v 0 0.24475 0.0195002
v 0 -0.154856 0.0195002
v -0.35 -0.154856 0.0125002
v -0.35 0.24475 0.0125002
v 0.35 0.24475 0.0125002
v 0.35 -0.154856 0.0125002
v 0.198453 0.24475 0.0125002
v 0.198453 -0.154856 0.0125002
v -0.198453 0.24475 0.0125002
v -0.198453 -0.154856 0.0125002
v 0 0.24475 0.0125002
v 0 -0.154856 0.0125002
v -0.394 -0.192943 -0.0265002
v -0.36758 -0.16941 -0.0595002
v -0.394 0.290692 -0.0265002
v -0.367 0.26175 -0.0595002
v 0.394 0.290692 -0.0265002
v 0.367 0.26175 -0.0595002
v 0.394 -0.192943 -0.0265002
v 0.36758 -0.16941 -0.0595002
v 0.198453 -0.230373 -0.0265002
v 0.198453 -0.20125 -0.0595002
v -0.198453 -0.230373 -0.0265002
v -0.198453 -0.20125 -0.0595002
v 0.198453 0.26175 -0.0595002
v 0.198453 0.290692 -0.0265002
v -0.198453 0.26175 -0.0595002
v -0.198453 0.290692 -0.0265002
v 0 -0.242193 -0.0265002
v 0 -0.21325 -0.0595002
v 0 0.26175 -0.0595002
v 0 0.290692 -0.0265002
v -0.4 -0.19625 0.00750023
v -0.390757 -0.188598 0.0195002
v -0.391515 0.284507 0.0195002
v -0.4 0.29475 0.00750023
v 0.391515 0.284507 0.0195002
v 0.4 0.29475 0.00750023
v 0.4 -0.19625 0.00750023
v 0.390757 -0.188598 0.0195002
v 0.198453 0.29475 0.00750023
v 0.198453 0.284507 0.0195002
v 0.198453 -0.22225 0.0195002
v 0.198453 -0.23425 0.00750023
v -0.198453 0.284507 0.0195002
v -0.198453 0.29475 0.00750023
v -0.198453 -0.22225 0.0195002
v -0.198453 -0.23425 0.00750023
v 0 0.29475 0.00750023
v 0 0.284507 0.0195002
v 0 -0.24625 0.00750023
v 0 -0.23425 0.0195002
v -0.3996 -0.19585 -0.00388271
v 0.3996 -0.19585 -0.00388271
v 0.196709 -0.23385 -0.00388271
v -0.196709 -0.23385 -0.00388271
v 0 -0.24585 -0.00388271
v -0.372 -0.20325 0.0170002
v 0.372 -0.20325 0.0170002
v 0.196905 -0.24125 0.0170002
v -0.196905 -0.24125 0.0170002
v 0 -0.25725 0.0170002
v 0.372 -0.20675 0.0170002
v 0.196905 -0.24475 0.0170002
v 0.196709 -0.23415 -0.00388271
v 0.3996 -0.19615 -0.00388271
v 0 -0.26075 0.0170002
v -0.196905 -0.24475 0.0170002
v -0.196709 -0.23415 -0.00388271
v 0 -0.24615 -0.00388271
v -0.372 -0.20675 0.0170002
v -0.3996 -0.19615 -0.00388271
v -0.4 -0.19625 -0.00400021
v 0 -0.24625 -0.00400021
v 0.4 -0.19625 -0.00400021
v -0.4 0.29475 -0.00400021
v 0 0.29475 -0.00400021
v 0.4 0.29475 -0.00400021
v 0.198453 0.29475 -0.00400021
v -0.198453 0.29475 -0.00400021
v 0.198453 -0.23425 -0.00400021
v -0.198453 -0.23425 -0.00400021
v 8e-010 -0.29475 -0.110442
v -0.255614 -0.29475 -0.0422644
v -0.276895 -0.29475 -9.31323e-009
v -0.255614 -0.29475 0.0422644
v 8e-010 -0.29475 0.110442
v 0.255614 -0.29475 0.0422644
v 0.276895 -0.29475 -9.31323e-009
v 0.255614 -0.29475 -0.0422644
v 8e-010 -0.27475 -0.10179
v -0.235589 -0.27475 -0.0389534
v -0.255 -0.27475 -9.31323e-009
v -0.235589 -0.27475 0.0389533
v 8e-010 -0.27475 0.10179
v 0.235589 -0.27475 0.0389533
v 0.255 -0.27475 -9.31323e-009
v 0.235589 -0.27475 -0.0389534
v 8e-010 -0.28745 -0.110536
v -0.255833 -0.28745 -0.0423005
v -0.276911 -0.28745 -9.31323e-009
v -0.255833 -0.28745 0.0423004
v 8e-010 -0.28745 0.110536
v 0.255833 -0.28745 0.0423004
v 0.276911 -0.28745 -9.31323e-009
v 0.255833 -0.28745 -0.0423005
v 8e-010 -0.27475 -9.31323e-009
v -0.095 -0.29475 -0.102899
v -0.095 -0.29475 0.102899
v 0.095 -0.29475 -0.102899
v 0.095 -0.29475 0.102899
v 0.095 -0.27475 -0.0942469
v -0.095 -0.27475 -0.0942469
v -0.095 -0.27475 0.0942469
v 0.095 -0.27475 0.0942469
v -0.095 -0.27475 -9.31323e-009
v 0.095 -0.27475 -9.31323e-009
v -0.095 -0.28745 -0.102993
v -0.095 -0.28745 0.102993
v 0.095 -0.28745 0.102993
v 0.095 -0.28745 -0.102993
v -0.176 -0.29475 -0.0829348
v 0.176 -0.27475 0.0731021
v -0.176 -0.27475 -9.31323e-009
v 0.176 -0.28745 0.0830399
v 0.176 -0.29475 0.0829348
v 0.176 -0.27475 -0.0731021
v -0.176 -0.28745 0.0830399
v 0.176 -0.27475 -9.31323e-009
v -0.176 -0.27475 -0.0731021
v -0.176 -0.27475 0.0731021
v -0.176 -0.28745 -0.08304
v 0.176 -0.28745 -0.08304
v 0.176 -0.29475 -0.0829348
v -0.176 -0.29475 0.0829348
v 6.69388e-010 -0.23635 -0.059391
v -0.0082 -0.23635 -0.0568664
v -0.0142028 -0.23635 -0.0499691
v -0.0164 -0.23635 -0.0405472
v -0.0142028 -0.23635 -0.0311253
v -0.0082 -0.23635 -0.024228
v 6.69388e-010 -0.23635 -0.0217034
v 0.0082 -0.23635 -0.024228
v 0.0142028 -0.23635 -0.0311253
v 0.0164 -0.23635 -0.0405472
v 0.0142028 -0.23635 -0.0499691
v 0.0082 -0.23635 -0.0568664
v 8.034e-010 -0.2749 -0.0217634
v 0.0100715 -0.2749 -0.0248131
v -0.0100715 -0.2749 -0.0248131
v 0.0174444 -0.2749 -0.0336625
v -0.0174444 -0.2749 -0.0336625
v 0.020143 -0.2749 -0.045751
v -0.020143 -0.2749 -0.045751
v 0.0174444 -0.2749 -0.0578395
v -0.0174444 -0.2749 -0.0578395
v 0.0100715 -0.2749 -0.0666889
v -0.0100715 -0.2749 -0.0666889
v 8.034e-010 -0.2749 -0.0698522
vn 0 1 0
vn 0 -0.996208 -0.0870049
vn -1 0 0
vn 1 0 0
vn 0 0.2513 -0.967909
vn 0 -1 0
vn 0 0 1
vn 0.781003 0.00105058 -0.624527
vn 0.892669 0.000536745 -0.450713
vn -0.141043 -0.749184 -0.647171
vn -0.0929977 -0.751007 -0.653713
vn -0.110843 -0.894917 -0.432248
vn -0.166914 -0.885867 -0.432873
vn 0 0.751814 -0.659375
vn 0 0.900794 -0.434247
vn 0.000155666 -0.901589 -0.432594
vn 0.000340273 -0.751814 -0.659375
vn 0.092696 -0.747571 -0.657681
vn 0.13977 -0.742423 -0.655189
vn 0.167439 -0.888648 -0.42693
vn 0.11107 -0.895484 -0.431012
vn -0.77351 0.0010405 -0.633784
vn -0.889969 0.00053227 -0.456021
vn 0 0.751814 -0.659375
vn 0 0.900794 -0.434247
vn 0 0 -1
vn -0.0828282 -0.704677 0.704677
vn -0.122805 -0.701755 0.701754
vn 0 0.760604 0.649216
vn 0 0.760604 0.649216
vn -0.791831 -0.00126874 0.610739
vn -0.946528 -0.000670209 0.322621
vn 0.137178 -0.78389 0.605557
vn 0.0902315 -0.747525 0.658077
vn 0.113924 -0.929322 0.351257
vn 0.17015 -0.932173 0.319535
vn 0 0.760604 0.649216
vn 0 -0.707107 0.707107
vn 0.946632 0 0.322318
vn 0.792223 0 0.610232
vn 0.603378 0 0.797456
vn 0.318233 0 0.948013
vn -0.318233 0 0.948013
vn -0.603378 0 0.797456
vn -0.211628 0.97513 0.0658439
vn -0.14566 0.968477 0.202076
vn 0.207319 -0.955273 -0.210885
vn 0.141215 -0.931637 -0.334829
vn -0.00261905 0.912892 0.408193
vn 0.136418 0.90385 0.405518
vn 0.00291273 -0.85758 -0.514342
vn -0.128701 -0.849913 -0.510964
vn 0.200288 0.922876 0.328915
vn -0.189846 -0.874763 -0.445812
vn -0.991523 0 -0.129933
vn 0.991523 0 -0.129933
vn 0 0.996024 -0.0890901
vn 0.122628 -0.988674 -0.0865256
vn 0.184626 -0.979231 -0.0837804
vn -2.0374e-005 -0.996194 -0.0871593
vn 0.134035 -0.968029 0.212025
vn -0.184428 -0.978186 -0.0955973
vn -0.122496 -0.988333 -0.0905117
vn -0.123061 -0.992399 0
vn -0.185277 -0.982686 0
vn -1.55914e-007 -0.000893971 1
vn 0.545128 0.0130831 0.838251
vn -0.545163 0.0103976 0.838266
vn 0.889232 0.0481473 0.454915
vn -0.889433 0.0432795 0.455012
vn 0.995176 0.0980987 0.000643154
vn -0.995178 0.0980808 0.000710142
vn 0.878979 0.163789 -0.447849
vn -0.878328 0.168445 -0.447399
vn 0.532097 0.230163 -0.814799
vn -0.531494 0.234012 -0.814096
vn 5.59009e-005 0.261166 -0.965294
vn 0.426225 0.793748 0.433931
vn 0.276735 0.664124 0.69452
vn 0.296112 0.906331 0.301466
vn 0.501468 0.865176 3.83984e-008
vn 0.255704 0.966755 1.95798e-008
vn 0.13369 0.586462 0.798867
vn 0.154531 0.301901 0.940732
vn 0.335842 0.347533 0.87546
vn 0 0.567197 -0.823582
vn 0 0.290982 -0.956728
vn -0.154531 0.301901 -0.940732
vn -0.13369 0.586462 -0.798867
vn -0.426225 0.793749 -0.433931
vn -0.276734 0.664124 -0.69452
vn -0.335842 0.347533 -0.87546
vn -0.296112 0.906331 -0.301466
vn -0.501467 0.865177 2.3039e-008
vn -0.255704 0.966755 1.17479e-008
vn 0.296112 0.906331 -0.301466
vn 0.426225 0.793748 -0.433931
vn -0.426225 0.793748 0.433931
vn -0.276735 0.664124 0.69452
vn -0.296112 0.906331 0.301466
vn -0.13369 0.586462 0.798867
vn -0.154531 0.3019 0.940732
vn 3.91958e-008 0.290982 0.956729
vn 0 0.567197 0.823582
vn -0.335842 0.347533 0.87546
vn 0.276735 0.664124 -0.69452
vn 0.335842 0.347533 -0.87546
vn 0.154531 0.301901 -0.940732
vn 0.13369 0.586462 -0.798867
vn 0.315258 0.201363 0.927397
vn 0.15968 -0.0134729 0.987077
vn 0.349131 -0.0160912 0.936936
vn -0.710236 -0.0247037 0.70353
vn -0.894658 -0.0289423 0.445813
vn -0.710236 -0.0247044 -0.70353
vn -0.315257 0.201363 -0.927397
vn -0.349131 -0.0160907 -0.936936
vn 0.315257 0.201363 -0.927397
vn 0.349131 -0.0160907 -0.936936
vn 0.15968 -0.0134719 -0.987077
vn 0 -0.0129119 -0.999917
vn -0.15968 -0.0134719 -0.987077
vn -0.315257 0.201363 0.927397
vn -0.349131 -0.0160902 0.936936
vn -0.15968 -0.0134729 0.987077
vn 0.710236 -0.0247036 0.70353
vn 7.47403e-008 -0.0129129 0.999917
vn 0.894658 -0.0289423 0.445814
vn -0.894658 -0.0289428 -0.445813
vn 0.710236 -0.0247044 -0.70353
vn 0.894658 -0.0289428 -0.445814
vn -0.253653 0.959001 0.126397
vn -0.253653 0.959001 -0.126397
vn 0.253654 0.959001 0.126397
vn 0.253654 0.959001 -0.126397
mtllib Low Poly version TV Samsung.mtl
usemtl Default
g Default
f 10//1 4//1 2//1 7//1
f 8//2 1//2 3//2 9//2
f 9//3 3//3 4//3 10//3
f 12//2 6//2 1//2 8//2
f 7//1 2//1 5//1 11//1
f 11//4 5//4 6//4 12//4
f 7//5 8//5 9//5 10//5
f 8//5 7//5 11//5 12//5
f 18//1 16//1 26//1 28//1
f 16//3 15//3 25//3 26//3
f 15//6 17//6 27//6 25//6
f 17//6 21//6 31//6 27//6
f 21//6 19//6 29//6 31//6
f 19//6 14//6 24//6 29//6
f 14//4 13//4 23//4 24//4
f 13//1 20//1 30//1 23//1
f 20//1 22//1 32//1 30//1
f 22//1 18//1 28//1 32//1
f 25//7 27//7 28//7 26//7
f 29//7 24//7 23//7 30//7
f 27//7 31//7 32//7 28//7
f 31//7 29//7 30//7 32//7
f 40//8 38//8 37//9 39//9
f 34//10 44//11 43//12 33//13
f 45//14 51//14 52//15 46//15
f 49//16 43//12 44//11 50//17
f 51//14 47//14 48//15 52//15
f 42//18 40//19 39//20 41//21
f 50//17 42//18 41//21 49//16
f 36//22 34//22 33//23 35//23
f 47//14 36//24 35//25 48//15
f 38//24 45//14 46//15 37//25
f 42//26 45//26 38//26 40//26
f 34//26 36//26 47//26 44//26
f 50//26 51//26 45//26 42//26
f 44//26 47//26 51//26 50//26
f 67//27 54//28 53//28 68//27
f 55//29 65//30 66//30 56//29
f 54//31 55//31 56//32 53//32
f 60//33 63//34 64//35 59//36
f 70//37 62//30 61//30 69//37
f 63//34 72//38 71//38 64//34
f 65//30 70//37 69//37 66//30
f 59//39 58//39 57//40 60//40
f 72//38 67//27 68//27 71//38
f 62//30 57//29 58//29 61//30
f 55//7 14//7 19//7 65//7
f 54//7 13//7 14//7 55//7
f 67//7 20//7 13//7 54//7
f 72//7 22//7 20//7 67//7
f 63//7 18//7 22//7 72//7
f 60//7 16//7 18//7 63//7
f 57//7 15//7 16//7 60//7
f 62//7 17//7 15//7 57//7
f 70//7 21//7 17//7 62//7
f 65//7 19//7 21//7 70//7
f 86//41 74//41 79//42 83//42
f 83//42 79//42 80//7 84//7
f 87//7 82//7 81//7 88//7
f 84//7 80//7 82//7 87//7
f 88//7 81//7 78//43 91//43
f 91//43 78//43 73//44 92//44
f 79//45 74//45 75//46 80//46
f 83//47 84//48 85//48 86//47
f 82//49 77//49 76//50 81//50
f 87//51 88//52 89//52 90//51
f 80//46 75//46 77//49 82//49
f 84//48 87//51 90//51 85//48
f 81//50 76//50 73//53 78//53
f 88//52 91//54 92//54 89//52
f 33//23 93//55 96//55 35//23
f 37//9 98//56 95//56 39//9
f 58//39 59//39 95//56 98//56
f 53//32 56//32 96//55 93//55
f 46//15 99//57 98//57 37//25
f 52//15 97//57 99//57 46//15
f 61//1 58//1 98//57 99//57
f 69//1 61//1 99//57 97//57
f 35//25 96//57 100//57 48//15
f 48//15 100//57 97//57 52//15
f 56//1 66//1 100//57 96//57
f 66//1 69//1 97//57 100//57
f 101//58 41//21 39//20 95//59
f 94//60 49//16 41//21 101//58
f 59//36 64//61 101//58 95//59
f 64//61 71//6 94//60 101//58
f 93//62 33//13 43//12 102//63
f 102//63 43//12 49//16 94//60
f 68//64 53//65 93//62 102//63
f 71//6 68//64 102//63 94//60
f 162//66 168//66 169//67 163//67
f 161//68 170//68 168//66 162//66
f 163//67 169//67 171//69 164//69
f 160//70 172//70 170//68 161//68
f 164//69 171//69 173//71 165//71
f 159//72 174//72 172//70 160//70
f 165//71 173//71 175//73 166//73
f 158//74 176//74 174//72 159//72
f 166//73 175//73 177//75 167//75
f 157//76 178//76 176//74 158//74
f 167//75 177//75 179//77 156//77
f 156//77 179//77 178//76 157//76
f 116//78 143//79 145//79 124//78
f 116//80 124//78 125//81 117//82
f 143//79 135//83 140//84 145//85
f 111//86 119//87 138//88 133//89
f 112//90 150//91 152//91 120//90
f 150//91 133//89 138//88 152//92
f 112//93 120//90 121//94 113//95
f 118//96 117//82 125//81 126//97
f 114//98 122//98 148//99 151//99
f 114//100 113//95 121//94 122//98
f 134//101 139//102 123//103 115//104
f 151//99 148//105 139//102 134//101
f 115//104 123//103 140//84 135//83
f 118//97 126//97 153//106 147//106
f 147//106 153//107 141//108 132//109
f 111//86 132//109 141//108 119//87
f 145//110 140//84 131//111 146//112
f 122//113 121//114 105//114 106//113
f 120//115 152//116 142//117 104//115
f 153//118 154//119 130//120 141//108
f 138//88 119//87 103//121 128//122
f 148//123 155//124 129//125 139//102
f 124//126 145//110 146//112 108//126
f 139//102 129//125 107//127 123//103
f 124//126 108//126 109//128 125//128
f 140//84 123//103 107//127 131//111
f 119//87 141//108 130//120 103//121
f 122//113 106//113 155//124 148//123
f 120//115 104//115 105//129 121//129
f 126//130 110//130 154//119 153//118
f 126//130 125//131 109//131 110//130
f 152//116 138//88 128//122 142//117
f 144//1 113//95 114//132 151//1
f 127//1 111//1 133//1 136//1
f 136//1 144//1 151//1 134//1
f 144//1 150//1 112//133 113//95
f 137//1 135//1 143//1 149//1
f 127//1 137//1 132//1 111//1
f 149//1 143//1 116//134 117//82
f 136//1 133//1 150//1 144//1
f 127//1 136//1 134//1 115//1
f 137//1 149//1 147//1 132//1
f 127//1 115//1 135//1 137//1
f 149//1 117//82 118//135 147//1
